<svg xmlns="http://www.w3.org/2000/svg" width="200" height="40" viewBox="0 0 200 40" fill="none">
<path d="M19.3944 29.9616C18.3018 30.5904 16.9765 31.0873 15.4184 31.4524C13.8604 31.8175 12.2417 32 10.5622 32C8.29601 32 6.36364 31.7262 4.76514 31.1786C3.18688 30.631 1.99306 29.8704 1.1837 28.8968C0.394566 27.9233 0 26.7976 0 25.5198C0 24.4043 0.303512 23.4206 0.910537 22.5688C1.51756 21.7169 2.35728 21.0578 3.42969 20.5913C2.60009 20.1653 1.96271 19.5772 1.51756 18.8267C1.09264 18.056 0.880186 17.2143 0.880186 16.3016C0.880186 15.1252 1.2444 14.0503 1.97283 13.0767C2.72149 12.1032 3.85461 11.3223 5.37217 10.7341C6.88973 10.1459 8.76139 9.85185 10.9871 9.85185C12.3833 9.85185 13.7592 9.98369 15.1149 10.2474C16.4706 10.511 17.6644 10.866 18.6964 11.3122L17.0574 15.8148C15.1756 14.9832 13.2331 14.5675 11.23 14.5675C9.79333 14.5675 8.72092 14.7601 8.01273 15.1455C7.30453 15.5106 6.95043 16.0278 6.95043 16.6971C6.95043 17.914 7.83062 18.5225 9.59099 18.5225H15.6005V23.1164H9.19642C8.16448 23.1164 7.38547 23.2888 6.85938 23.6336C6.33329 23.9581 6.07025 24.4449 6.07025 25.0939C6.07025 25.7835 6.4547 26.321 7.22359 26.7063C7.99249 27.0917 9.18631 27.2844 10.805 27.2844C11.9584 27.2844 13.1421 27.1323 14.3561 26.828C15.5904 26.5035 16.6628 26.0675 17.5734 25.5198L19.3944 29.9616Z" fill="white"/>
<path d="M32.2228 14.8108C34.2665 14.8108 35.9054 15.4193 37.1397 16.6362C38.3942 17.8532 39.0215 19.6887 39.0215 22.1429V31.5741H33.2548V23.086C33.2548 20.8347 32.3543 19.709 30.5535 19.709C29.562 19.709 28.7628 20.0335 28.1558 20.6825C27.569 21.3316 27.2756 22.3051 27.2756 23.6032V31.5741H21.5088V15.0847H27.0024V16.8796C27.6499 16.2103 28.4188 15.7033 29.3091 15.3585C30.1994 14.9934 31.1706 14.8108 32.2228 14.8108Z" fill="white"/>
<path d="M49.6532 14.8108C52.3848 14.8108 54.4689 15.4396 55.9055 16.6971C57.3422 17.9343 58.0605 19.8408 58.0605 22.4167V31.5741H52.6883V29.4444C51.8587 31.0467 50.24 31.8479 47.8321 31.8479C46.5574 31.8479 45.4546 31.6248 44.5238 31.1786C43.5931 30.7324 42.8849 30.134 42.3993 29.3836C41.9339 28.6129 41.7012 27.7407 41.7012 26.7672C41.7012 25.2055 42.2981 23.9987 43.4919 23.1468C44.6857 22.2747 46.527 21.8386 49.0158 21.8386H52.2938C52.1926 20.0944 51.0291 19.2222 48.8034 19.2222C48.0142 19.2222 47.215 19.3541 46.4056 19.6177C45.5962 19.8611 44.9083 20.2059 44.3417 20.6521L42.3993 16.7275C43.3098 16.119 44.4126 15.6526 45.7075 15.328C47.0228 14.9832 48.338 14.8108 49.6532 14.8108ZM49.4407 28.1971C50.1085 28.1971 50.6953 28.0348 51.2011 27.7103C51.707 27.3858 52.0712 26.9092 52.2938 26.2804V24.8505H49.805C48.1255 24.8505 47.2858 25.4083 47.2858 26.5238C47.2858 27.0309 47.478 27.4365 47.8625 27.7407C48.2469 28.045 48.773 28.1971 49.4407 28.1971Z" fill="white"/>
<path d="M76.0263 27.254V31.5741H60.8507V28.1667L68.4688 19.3743H61.0631V15.0847H75.7228V18.4616L68.1046 27.254H76.0263Z" fill="white"/>
<path d="M85.5767 14.8108C88.3083 14.8108 90.3924 15.4396 91.8291 16.6971C93.2657 17.9343 93.984 19.8408 93.984 22.4167V31.5741H88.6118V29.4444C87.7822 31.0467 86.1635 31.8479 83.7556 31.8479C82.4809 31.8479 81.3781 31.6248 80.4474 31.1786C79.5166 30.7324 78.8084 30.134 78.3228 29.3836C77.8574 28.6129 77.6247 27.7407 77.6247 26.7672C77.6247 25.2055 78.2216 23.9987 79.4154 23.1468C80.6092 22.2747 82.4506 21.8386 84.9394 21.8386H88.2173C88.1161 20.0944 86.9526 19.2222 84.7269 19.2222C83.9378 19.2222 83.1385 19.3541 82.3291 19.6177C81.5198 19.8611 80.8318 20.2059 80.2653 20.6521L78.3228 16.7275C79.2333 16.119 80.3361 15.6526 81.6311 15.328C82.9463 14.9832 84.2615 14.8108 85.5767 14.8108ZM85.3643 28.1971C86.032 28.1971 86.6188 28.0348 87.1246 27.7103C87.6305 27.3858 87.9947 26.9092 88.2173 26.2804V24.8505H85.7285C84.049 24.8505 83.2093 25.4083 83.2093 26.5238C83.2093 27.0309 83.4016 27.4365 83.786 27.7407C84.1704 28.045 84.6965 28.1971 85.3643 28.1971Z" fill="white"/>
<path d="M129.241 10.2778V31.5741H127.087V14.537L118.74 28.8664H117.678L109.331 14.6283V31.5741H107.176V10.2778H109.028L118.254 26.0675L127.39 10.2778H129.241Z" fill="white"/>
<path d="M150.095 15.5714V31.5741H148.031V28.6534C147.465 29.627 146.686 30.3876 145.694 30.9352C144.703 31.4625 143.57 31.7262 142.295 31.7262C140.211 31.7262 138.562 31.1481 137.348 29.9921C136.154 28.8157 135.557 27.1019 135.557 24.8505V15.5714H137.712V24.6376C137.712 26.321 138.127 27.5988 138.956 28.4709C139.786 29.343 140.97 29.7791 142.507 29.7791C144.187 29.7791 145.512 29.272 146.483 28.2579C147.455 27.2235 147.94 25.7936 147.94 23.9683V15.5714H150.095Z" fill="white"/>
<path d="M160.41 31.7262C159.115 31.7262 157.871 31.5437 156.677 31.1786C155.503 30.7932 154.583 30.3166 153.915 29.7487L154.886 28.045C155.554 28.5723 156.394 29.0084 157.405 29.3532C158.417 29.6777 159.469 29.8399 160.562 29.8399C162.019 29.8399 163.091 29.6168 163.779 29.1706C164.487 28.7041 164.841 28.0551 164.841 27.2235C164.841 26.6354 164.649 26.179 164.265 25.8545C163.88 25.5097 163.395 25.2562 162.808 25.0939C162.221 24.9114 161.442 24.739 160.471 24.5767C159.176 24.3333 158.134 24.0899 157.345 23.8466C156.555 23.5829 155.878 23.1468 155.311 22.5384C154.765 21.9299 154.492 21.0882 154.492 20.0132C154.492 18.6746 155.048 17.5794 156.161 16.7275C157.274 15.8757 158.822 15.4497 160.805 15.4497C161.837 15.4497 162.869 15.5917 163.9 15.8757C164.932 16.1393 165.782 16.4943 166.45 16.9405L165.509 18.6746C164.194 17.7619 162.626 17.3056 160.805 17.3056C159.429 17.3056 158.387 17.5489 157.678 18.0357C156.99 18.5225 156.646 19.1614 156.646 19.9524C156.646 20.5608 156.839 21.0476 157.223 21.4127C157.628 21.7778 158.124 22.0516 158.71 22.2341C159.297 22.3964 160.107 22.5688 161.138 22.7513C162.413 22.9947 163.435 23.2381 164.204 23.4815C164.973 23.7249 165.63 24.1407 166.177 24.7288C166.723 25.317 166.996 26.1283 166.996 27.1627C166.996 28.5622 166.409 29.6777 165.236 30.5093C164.083 31.3205 162.474 31.7262 160.41 31.7262Z" fill="white"/>
<path d="M170.98 15.5714H173.135V31.5741H170.98V15.5714ZM172.073 12.0728C171.628 12.0728 171.253 11.9206 170.95 11.6164C170.646 11.3122 170.495 10.9471 170.495 10.5212C170.495 10.1155 170.646 9.76058 170.95 9.45635C171.253 9.15212 171.628 9 172.073 9C172.518 9 172.892 9.15212 173.196 9.45635C173.499 9.7403 173.651 10.0851 173.651 10.4907C173.651 10.9369 173.499 11.3122 173.196 11.6164C172.892 11.9206 172.518 12.0728 172.073 12.0728Z" fill="white"/>
<path d="M185.748 31.7262C184.169 31.7262 182.753 31.3814 181.498 30.6918C180.264 30.0022 179.293 29.0388 178.585 27.8016C177.877 26.5441 177.522 25.1345 177.522 23.5728C177.522 22.011 177.877 20.6116 178.585 19.3743C179.293 18.1371 180.264 17.1737 181.498 16.4841C182.753 15.7945 184.169 15.4497 185.748 15.4497C187.124 15.4497 188.348 15.7235 189.42 16.2712C190.513 16.7985 191.373 17.5794 192 18.6138L190.391 19.709C189.865 18.918 189.198 18.3298 188.388 17.9444C187.579 17.5388 186.699 17.336 185.748 17.336C184.594 17.336 183.552 17.5996 182.621 18.127C181.711 18.634 180.993 19.3642 180.467 20.3175C179.961 21.2707 179.708 22.3558 179.708 23.5728C179.708 24.81 179.961 25.9052 180.467 26.8585C180.993 27.7914 181.711 28.5216 182.621 29.0489C183.552 29.556 184.594 29.8095 185.748 29.8095C186.699 29.8095 187.579 29.6168 188.388 29.2315C189.198 28.8461 189.865 28.2579 190.391 27.4669L192 28.5622C191.373 29.5966 190.513 30.3876 189.42 30.9352C188.328 31.4625 187.103 31.7262 185.748 31.7262Z" fill="white"/>
</svg>